<svg xmlns="http://www.w3.org/2000/svg" xmlns:xlink="http://www.w3.org/1999/xlink" width="500" zoomAndPan="magnify" viewBox="0 0 375 374.999991" height="500" preserveAspectRatio="xMidYMid meet" version="1.0"><defs><g/><clipPath id="2ca769573b"><path d="M 8.058594 132.472656 L 107.03125 132.472656 L 107.03125 233.90625 L 8.058594 233.90625 Z M 8.058594 132.472656 " clip-rule="nonzero"/></clipPath><clipPath id="2b8f090b55"><path d="M 8.058594 132.472656 L 107.058594 132.472656 L 107.058594 233.71875 L 8.058594 233.71875 Z M 8.058594 132.472656 " clip-rule="nonzero"/></clipPath><clipPath id="e06d680dff"><path d="M 28.894531 170.199219 L 85.894531 170.199219 L 85.894531 227.199219 L 28.894531 227.199219 Z M 28.894531 170.199219 " clip-rule="nonzero"/></clipPath><clipPath id="ba79c2e0cb"><path d="M 46.558594 141.269531 L 86.308594 141.269531 L 86.308594 220.769531 L 46.558594 220.769531 Z M 46.558594 141.269531 " clip-rule="nonzero"/></clipPath></defs><rect x="-37.5" width="450" fill="#ffffff" y="-37.499999" height="449.999989" fill-opacity="1"/><rect x="-37.5" width="450" fill="#13436b" y="-37.499999" height="449.999989" fill-opacity="1"/><g clip-path="url(#2ca769573b)"><path fill="#ffffff" d="M 8.058594 132.472656 L 107.03125 132.472656 L 107.03125 233.90625 L 8.058594 233.90625 Z M 8.058594 132.472656 " fill-opacity="1" fill-rule="nonzero"/></g><g clip-path="url(#2b8f090b55)"><path stroke-linecap="butt" transform="matrix(0.750266, 0, 0, 0.7487, 8.056892, 132.471817)" fill="none" stroke-linejoin="miter" d="M 0.00226845 0.00112108 L 131.955403 0.00112108 L 131.955403 135.230299 L 0.00226845 135.230299 Z M 0.00226845 0.00112108 " stroke="#000000" stroke-width="8" stroke-opacity="1" stroke-miterlimit="4"/></g><path fill="#b44401" d="M 30.3125 171.796875 L 30.3125 225.957031 L 84.472656 225.957031 Z M 30.3125 171.796875 " fill-opacity="1" fill-rule="nonzero"/><g clip-path="url(#e06d680dff)"><path fill="#b44401" d="M 84.472656 227.199219 L 30.3125 227.199219 C 29.425781 227.199219 28.894531 226.664062 28.894531 225.957031 L 28.894531 171.796875 C 28.894531 171.265625 29.25 170.730469 29.78125 170.554688 C 30.136719 170.199219 30.847656 170.375 31.203125 170.730469 L 85.359375 224.890625 C 85.714844 225.246094 85.894531 225.777344 85.714844 226.3125 C 85.359375 226.84375 85.003906 227.199219 84.472656 227.199219 Z M 31.558594 224.535156 L 81.097656 224.535156 L 31.558594 174.992188 Z M 31.558594 224.535156 " fill-opacity="1" fill-rule="nonzero"/></g><g clip-path="url(#ba79c2e0cb)"><path fill="#b44401" d="M 46.558594 153.125 C 61.9375 153.125 74.425781 165.613281 74.425781 180.984375 C 74.425781 196.359375 61.9375 208.847656 46.558594 208.847656 L 46.558594 220.730469 C 68.515625 220.730469 86.308594 202.9375 86.308594 180.984375 C 86.308594 159.03125 68.515625 141.308594 46.558594 141.308594 Z M 46.558594 153.125 " fill-opacity="1" fill-rule="nonzero"/></g><g fill="#b44401" fill-opacity="1"><g transform="translate(118.406109, 197.43062)"><g><path d="M 27.597656 0 L 37.851562 0 L 27.34375 -18.671875 C 40.636719 -22.535156 39.054688 -45.257812 22.914062 -45.257812 L 5.0625 -45.257812 L 5.0625 0 L 14.117188 0 L 14.117188 -17.28125 L 18.484375 -17.28125 Z M 14.117188 -26.078125 L 14.117188 -36.207031 L 22.089844 -36.207031 C 28.230469 -36.207031 28.230469 -26.078125 22.089844 -26.078125 Z M 14.117188 -26.078125 "/></g></g></g><g fill="#b44401" fill-opacity="1"><g transform="translate(157.205779, 197.43062)"><g><path d="M 28.484375 0 L 28.484375 -9.050781 L 14.117188 -9.050781 L 14.117188 -18.101562 L 26.015625 -18.101562 L 26.015625 -27.15625 L 14.117188 -27.15625 L 14.117188 -36.207031 L 27.722656 -36.207031 L 27.722656 -45.257812 L 5.0625 -45.257812 L 5.0625 0 Z M 28.484375 0 "/></g></g></g><g fill="#b44401" fill-opacity="1"><g transform="translate(189.106321, 197.43062)"><g><path d="M 14.117188 -24.621094 L 37.027344 0.949219 L 39.433594 0.949219 L 39.433594 -45.195312 L 30.320312 -45.195312 L 30.320312 -19.621094 L 7.46875 -46.207031 L 5.0625 -46.207031 L 5.0625 0 L 14.117188 0 Z M 14.117188 -24.621094 "/></g></g></g><g fill="#b44401" fill-opacity="1"><g transform="translate(233.665802, 197.43062)"><g><path d="M 26.839844 0.632812 C 57.980469 0.632812 57.980469 -46.015625 26.839844 -46.015625 C -4.304688 -46.015625 -4.304688 0.632812 26.839844 0.632812 Z M 26.839844 -8.734375 C 8.734375 -8.734375 8.734375 -36.710938 26.839844 -36.710938 C 44.941406 -36.710938 44.941406 -8.734375 26.839844 -8.734375 Z M 26.839844 -8.734375 "/></g></g></g><g fill="#b44401" fill-opacity="1"><g transform="translate(287.276435, 197.43062)"><g><path d="M 19.117188 0.949219 L 21.140625 0.949219 L 39.878906 -45.257812 L 29.433594 -45.257812 L 23.355469 -29.875 L 20.128906 -20.824219 L 16.835938 -30.191406 L 10.824219 -45.257812 L 0.378906 -45.257812 Z M 19.117188 0.949219 "/></g></g></g><g fill="#b44401" fill-opacity="1"><g transform="translate(327.595165, 197.43062)"><g><path d="M 28.484375 0 L 28.484375 -9.050781 L 14.117188 -9.050781 L 14.117188 -18.101562 L 26.015625 -18.101562 L 26.015625 -27.15625 L 14.117188 -27.15625 L 14.117188 -36.207031 L 27.722656 -36.207031 L 27.722656 -45.257812 L 5.0625 -45.257812 L 5.0625 0 Z M 28.484375 0 "/></g></g></g><g fill="#ffffff" fill-opacity="1"><g transform="translate(149.495956, 224.01029)"><g><path d="M 7.40625 -2.875 C 7.40625 -1.9375 7.066406 -1.195312 6.390625 -0.65625 C 5.722656 -0.125 4.789062 0.140625 3.59375 0.140625 C 2.488281 0.140625 1.515625 -0.0664062 0.671875 -0.484375 L 0.671875 -2.515625 C 1.367188 -2.203125 1.957031 -1.984375 2.4375 -1.859375 C 2.914062 -1.734375 3.359375 -1.671875 3.765625 -1.671875 C 4.242188 -1.671875 4.609375 -1.757812 4.859375 -1.9375 C 5.117188 -2.125 5.25 -2.398438 5.25 -2.765625 C 5.25 -2.960938 5.191406 -3.140625 5.078125 -3.296875 C 4.972656 -3.460938 4.804688 -3.617188 4.578125 -3.765625 C 4.359375 -3.910156 3.914062 -4.144531 3.25 -4.46875 C 2.613281 -4.757812 2.132812 -5.039062 1.8125 -5.3125 C 1.5 -5.59375 1.25 -5.910156 1.0625 -6.265625 C 0.875 -6.628906 0.78125 -7.054688 0.78125 -7.546875 C 0.78125 -8.460938 1.085938 -9.179688 1.703125 -9.703125 C 2.328125 -10.222656 3.1875 -10.484375 4.28125 -10.484375 C 4.820312 -10.484375 5.335938 -10.421875 5.828125 -10.296875 C 6.316406 -10.171875 6.828125 -9.992188 7.359375 -9.765625 L 6.640625 -8.0625 C 6.097656 -8.28125 5.644531 -8.429688 5.28125 -8.515625 C 4.914062 -8.609375 4.5625 -8.65625 4.21875 -8.65625 C 3.800781 -8.65625 3.476562 -8.554688 3.25 -8.359375 C 3.03125 -8.171875 2.921875 -7.921875 2.921875 -7.609375 C 2.921875 -7.421875 2.96875 -7.253906 3.0625 -7.109375 C 3.15625 -6.960938 3.296875 -6.820312 3.484375 -6.6875 C 3.679688 -6.5625 4.144531 -6.320312 4.875 -5.96875 C 5.84375 -5.507812 6.503906 -5.046875 6.859375 -4.578125 C 7.222656 -4.109375 7.40625 -3.539062 7.40625 -2.875 Z M 7.40625 -2.875 "/></g></g></g><g fill="#ffffff" fill-opacity="1"><g transform="translate(157.475307, 224.01029)"><g><path d="M 10.6875 -5.1875 C 10.6875 -3.46875 10.257812 -2.148438 9.40625 -1.234375 C 8.5625 -0.316406 7.347656 0.140625 5.765625 0.140625 C 4.179688 0.140625 2.960938 -0.316406 2.109375 -1.234375 C 1.265625 -2.148438 0.84375 -3.472656 0.84375 -5.203125 C 0.84375 -6.921875 1.265625 -8.234375 2.109375 -9.140625 C 2.960938 -10.046875 4.1875 -10.5 5.78125 -10.5 C 7.363281 -10.5 8.578125 -10.039062 9.421875 -9.125 C 10.265625 -8.21875 10.6875 -6.90625 10.6875 -5.1875 Z M 3.140625 -5.1875 C 3.140625 -4.03125 3.359375 -3.160156 3.796875 -2.578125 C 4.234375 -1.992188 4.890625 -1.703125 5.765625 -1.703125 C 7.515625 -1.703125 8.390625 -2.863281 8.390625 -5.1875 C 8.390625 -7.507812 7.519531 -8.671875 5.78125 -8.671875 C 4.90625 -8.671875 4.242188 -8.378906 3.796875 -7.796875 C 3.359375 -7.210938 3.140625 -6.34375 3.140625 -5.1875 Z M 3.140625 -5.1875 "/></g></g></g><g fill="#ffffff" fill-opacity="1"><g transform="translate(169.005752, 224.01029)"><g><path d="M 1.296875 0 L 1.296875 -10.34375 L 3.5 -10.34375 L 3.5 -1.8125 L 7.6875 -1.8125 L 7.6875 0 Z M 1.296875 0 "/></g></g></g><g fill="#ffffff" fill-opacity="1"><g transform="translate(177.190249, 224.01029)"><g><path d="M 9.71875 -10.34375 L 9.71875 -3.65625 C 9.71875 -2.882812 9.546875 -2.210938 9.203125 -1.640625 C 8.859375 -1.066406 8.363281 -0.625 7.71875 -0.3125 C 7.070312 -0.0078125 6.3125 0.140625 5.4375 0.140625 C 4.101562 0.140625 3.066406 -0.195312 2.328125 -0.875 C 1.597656 -1.5625 1.234375 -2.492188 1.234375 -3.671875 L 1.234375 -10.34375 L 3.421875 -10.34375 L 3.421875 -4.015625 C 3.421875 -3.210938 3.578125 -2.625 3.890625 -2.25 C 4.210938 -1.882812 4.742188 -1.703125 5.484375 -1.703125 C 6.203125 -1.703125 6.722656 -1.890625 7.046875 -2.265625 C 7.367188 -2.640625 7.53125 -3.226562 7.53125 -4.03125 L 7.53125 -10.34375 Z M 9.71875 -10.34375 "/></g></g></g><g fill="#ffffff" fill-opacity="1"><g transform="translate(188.140634, 224.01029)"><g><path d="M 5.6875 -8.65625 C 4.863281 -8.65625 4.222656 -8.34375 3.765625 -7.71875 C 3.316406 -7.101562 3.09375 -6.242188 3.09375 -5.140625 C 3.09375 -2.835938 3.957031 -1.6875 5.6875 -1.6875 C 6.414062 -1.6875 7.296875 -1.867188 8.328125 -2.234375 L 8.328125 -0.390625 C 7.484375 -0.0351562 6.535156 0.140625 5.484375 0.140625 C 3.984375 0.140625 2.832031 -0.3125 2.03125 -1.21875 C 1.238281 -2.132812 0.84375 -3.445312 0.84375 -5.15625 C 0.84375 -6.226562 1.035156 -7.164062 1.421875 -7.96875 C 1.816406 -8.78125 2.378906 -9.398438 3.109375 -9.828125 C 3.847656 -10.265625 4.707031 -10.484375 5.6875 -10.484375 C 6.695312 -10.484375 7.707031 -10.242188 8.71875 -9.765625 L 8.015625 -7.984375 C 7.628906 -8.160156 7.238281 -8.316406 6.84375 -8.453125 C 6.457031 -8.585938 6.070312 -8.65625 5.6875 -8.65625 Z M 6.78125 1.765625 C 6.78125 2.367188 6.601562 2.804688 6.25 3.078125 C 5.894531 3.347656 5.34375 3.484375 4.59375 3.484375 C 4.226562 3.484375 3.882812 3.429688 3.5625 3.328125 L 3.5625 2.140625 C 3.6875 2.171875 3.859375 2.203125 4.078125 2.234375 C 4.296875 2.273438 4.460938 2.296875 4.578125 2.296875 C 4.921875 2.296875 5.09375 2.148438 5.09375 1.859375 C 5.09375 1.460938 4.695312 1.207031 3.90625 1.09375 L 4.46875 0 L 5.828125 0 L 5.640625 0.4375 C 5.984375 0.539062 6.257812 0.710938 6.46875 0.953125 C 6.675781 1.191406 6.78125 1.460938 6.78125 1.765625 Z M 6.78125 1.765625 "/></g></g></g><g fill="#ffffff" fill-opacity="1"><g transform="translate(197.372068, 224.01029)"><g><path d="M 10.6875 -5.1875 C 10.6875 -3.46875 10.257812 -2.148438 9.40625 -1.234375 C 8.5625 -0.316406 7.347656 0.140625 5.765625 0.140625 C 4.179688 0.140625 2.960938 -0.316406 2.109375 -1.234375 C 1.265625 -2.148438 0.84375 -3.472656 0.84375 -5.203125 C 0.84375 -6.921875 1.265625 -8.234375 2.109375 -9.140625 C 2.960938 -10.046875 4.1875 -10.5 5.78125 -10.5 C 7.363281 -10.5 8.578125 -10.039062 9.421875 -9.125 C 10.265625 -8.21875 10.6875 -6.90625 10.6875 -5.1875 Z M 3.140625 -5.1875 C 3.140625 -4.03125 3.359375 -3.160156 3.796875 -2.578125 C 4.234375 -1.992188 4.890625 -1.703125 5.765625 -1.703125 C 7.515625 -1.703125 8.390625 -2.863281 8.390625 -5.1875 C 8.390625 -7.507812 7.519531 -8.671875 5.78125 -8.671875 C 4.90625 -8.671875 4.242188 -8.378906 3.796875 -7.796875 C 3.359375 -7.210938 3.140625 -6.34375 3.140625 -5.1875 Z M 4.609375 -11.90625 C 4.460938 -11.90625 4.320312 -11.84375 4.1875 -11.71875 C 4.050781 -11.59375 3.953125 -11.40625 3.890625 -11.15625 L 2.84375 -11.15625 C 2.894531 -11.832031 3.085938 -12.363281 3.421875 -12.75 C 3.753906 -13.144531 4.203125 -13.34375 4.765625 -13.34375 C 4.953125 -13.34375 5.140625 -13.300781 5.328125 -13.21875 C 5.515625 -13.144531 5.695312 -13.0625 5.875 -12.96875 C 6.0625 -12.875 6.238281 -12.789062 6.40625 -12.71875 C 6.582031 -12.644531 6.757812 -12.609375 6.9375 -12.609375 C 7.082031 -12.609375 7.222656 -12.664062 7.359375 -12.78125 C 7.492188 -12.90625 7.585938 -13.097656 7.640625 -13.359375 L 8.703125 -13.359375 C 8.648438 -12.671875 8.453125 -12.132812 8.109375 -11.75 C 7.765625 -11.363281 7.320312 -11.171875 6.78125 -11.171875 C 6.582031 -11.171875 6.390625 -11.207031 6.203125 -11.28125 C 6.015625 -11.363281 5.832031 -11.445312 5.65625 -11.53125 C 5.476562 -11.625 5.300781 -11.707031 5.125 -11.78125 C 4.945312 -11.863281 4.773438 -11.90625 4.609375 -11.90625 Z M 4.609375 -11.90625 "/></g></g></g><g fill="#ffffff" fill-opacity="1"><g transform="translate(208.902512, 224.01029)"><g><path d="M 7.25 0 L 1.296875 0 L 1.296875 -10.34375 L 7.25 -10.34375 L 7.25 -8.546875 L 3.5 -8.546875 L 3.5 -6.265625 L 7 -6.265625 L 7 -4.484375 L 3.5 -4.484375 L 3.5 -1.8125 L 7.25 -1.8125 Z M 7.25 0 "/></g></g></g><g fill="#ffffff" fill-opacity="1"><g transform="translate(217.016271, 224.01029)"><g><path d="M 7.40625 -2.875 C 7.40625 -1.9375 7.066406 -1.195312 6.390625 -0.65625 C 5.722656 -0.125 4.789062 0.140625 3.59375 0.140625 C 2.488281 0.140625 1.515625 -0.0664062 0.671875 -0.484375 L 0.671875 -2.515625 C 1.367188 -2.203125 1.957031 -1.984375 2.4375 -1.859375 C 2.914062 -1.734375 3.359375 -1.671875 3.765625 -1.671875 C 4.242188 -1.671875 4.609375 -1.757812 4.859375 -1.9375 C 5.117188 -2.125 5.25 -2.398438 5.25 -2.765625 C 5.25 -2.960938 5.191406 -3.140625 5.078125 -3.296875 C 4.972656 -3.460938 4.804688 -3.617188 4.578125 -3.765625 C 4.359375 -3.910156 3.914062 -4.144531 3.25 -4.46875 C 2.613281 -4.757812 2.132812 -5.039062 1.8125 -5.3125 C 1.5 -5.59375 1.25 -5.910156 1.0625 -6.265625 C 0.875 -6.628906 0.78125 -7.054688 0.78125 -7.546875 C 0.78125 -8.460938 1.085938 -9.179688 1.703125 -9.703125 C 2.328125 -10.222656 3.1875 -10.484375 4.28125 -10.484375 C 4.820312 -10.484375 5.335938 -10.421875 5.828125 -10.296875 C 6.316406 -10.171875 6.828125 -9.992188 7.359375 -9.765625 L 6.640625 -8.0625 C 6.097656 -8.28125 5.644531 -8.429688 5.28125 -8.515625 C 4.914062 -8.609375 4.5625 -8.65625 4.21875 -8.65625 C 3.800781 -8.65625 3.476562 -8.554688 3.25 -8.359375 C 3.03125 -8.171875 2.921875 -7.921875 2.921875 -7.609375 C 2.921875 -7.421875 2.96875 -7.253906 3.0625 -7.109375 C 3.15625 -6.960938 3.296875 -6.820312 3.484375 -6.6875 C 3.679688 -6.5625 4.144531 -6.320312 4.875 -5.96875 C 5.84375 -5.507812 6.503906 -5.046875 6.859375 -4.578125 C 7.222656 -4.109375 7.40625 -3.539062 7.40625 -2.875 Z M 7.40625 -2.875 "/></g></g></g><g fill="#ffffff" fill-opacity="1"><g transform="translate(224.995621, 224.01029)"><g/></g></g><g fill="#ffffff" fill-opacity="1"><g transform="translate(228.758932, 224.01029)"><g><path d="M 5.21875 -5.8125 L 9.328125 -5.8125 L 9.328125 -0.453125 C 8.660156 -0.234375 8.03125 -0.0820312 7.4375 0 C 6.851562 0.09375 6.257812 0.140625 5.65625 0.140625 C 4.09375 0.140625 2.898438 -0.316406 2.078125 -1.234375 C 1.253906 -2.148438 0.84375 -3.46875 0.84375 -5.1875 C 0.84375 -6.851562 1.316406 -8.148438 2.265625 -9.078125 C 3.222656 -10.015625 4.550781 -10.484375 6.25 -10.484375 C 7.3125 -10.484375 8.332031 -10.273438 9.3125 -9.859375 L 8.59375 -8.09375 C 7.832031 -8.46875 7.046875 -8.65625 6.234375 -8.65625 C 5.285156 -8.65625 4.523438 -8.335938 3.953125 -7.703125 C 3.378906 -7.066406 3.09375 -6.210938 3.09375 -5.140625 C 3.09375 -4.015625 3.320312 -3.15625 3.78125 -2.5625 C 4.25 -1.976562 4.921875 -1.6875 5.796875 -1.6875 C 6.253906 -1.6875 6.71875 -1.734375 7.1875 -1.828125 L 7.1875 -3.984375 L 5.21875 -3.984375 Z M 5.21875 -5.8125 "/></g></g></g><g fill="#ffffff" fill-opacity="1"><g transform="translate(239.249519, 224.01029)"><g><path d="M 7.25 0 L 1.296875 0 L 1.296875 -10.34375 L 7.25 -10.34375 L 7.25 -8.546875 L 3.5 -8.546875 L 3.5 -6.265625 L 7 -6.265625 L 7 -4.484375 L 3.5 -4.484375 L 3.5 -1.8125 L 7.25 -1.8125 Z M 7.25 0 "/></g></g></g><g fill="#ffffff" fill-opacity="1"><g transform="translate(247.363277, 224.01029)"><g><path d="M 10.6875 -5.1875 C 10.6875 -3.46875 10.257812 -2.148438 9.40625 -1.234375 C 8.5625 -0.316406 7.347656 0.140625 5.765625 0.140625 C 4.179688 0.140625 2.960938 -0.316406 2.109375 -1.234375 C 1.265625 -2.148438 0.84375 -3.472656 0.84375 -5.203125 C 0.84375 -6.921875 1.265625 -8.234375 2.109375 -9.140625 C 2.960938 -10.046875 4.1875 -10.5 5.78125 -10.5 C 7.363281 -10.5 8.578125 -10.039062 9.421875 -9.125 C 10.265625 -8.21875 10.6875 -6.90625 10.6875 -5.1875 Z M 3.140625 -5.1875 C 3.140625 -4.03125 3.359375 -3.160156 3.796875 -2.578125 C 4.234375 -1.992188 4.890625 -1.703125 5.765625 -1.703125 C 7.515625 -1.703125 8.390625 -2.863281 8.390625 -5.1875 C 8.390625 -7.507812 7.519531 -8.671875 5.78125 -8.671875 C 4.90625 -8.671875 4.242188 -8.378906 3.796875 -7.796875 C 3.359375 -7.210938 3.140625 -6.34375 3.140625 -5.1875 Z M 3.140625 -5.1875 "/></g></g></g><g fill="#ffffff" fill-opacity="1"><g transform="translate(258.893722, 224.01029)"><g><path d="M 5.296875 0 L 3.09375 0 L 3.09375 -8.515625 L 0.296875 -8.515625 L 0.296875 -10.34375 L 8.09375 -10.34375 L 8.09375 -8.515625 L 5.296875 -8.515625 Z M 5.296875 0 "/></g></g></g><g fill="#ffffff" fill-opacity="1"><g transform="translate(267.283358, 224.01029)"><g><path d="M 7.25 0 L 1.296875 0 L 1.296875 -10.34375 L 7.25 -10.34375 L 7.25 -8.546875 L 3.5 -8.546875 L 3.5 -6.265625 L 7 -6.265625 L 7 -4.484375 L 3.5 -4.484375 L 3.5 -1.8125 L 7.25 -1.8125 Z M 3 -11.171875 L 3 -11.359375 C 3.8125 -12.296875 4.367188 -13.003906 4.671875 -13.484375 L 7.078125 -13.484375 L 7.078125 -13.34375 C 6.835938 -13.09375 6.421875 -12.722656 5.828125 -12.234375 C 5.234375 -11.753906 4.769531 -11.398438 4.4375 -11.171875 Z M 3 -11.171875 "/></g></g></g><g fill="#ffffff" fill-opacity="1"><g transform="translate(275.397116, 224.01029)"><g><path d="M 5.6875 -8.65625 C 4.863281 -8.65625 4.222656 -8.34375 3.765625 -7.71875 C 3.316406 -7.101562 3.09375 -6.242188 3.09375 -5.140625 C 3.09375 -2.835938 3.957031 -1.6875 5.6875 -1.6875 C 6.414062 -1.6875 7.296875 -1.867188 8.328125 -2.234375 L 8.328125 -0.390625 C 7.484375 -0.0351562 6.535156 0.140625 5.484375 0.140625 C 3.984375 0.140625 2.832031 -0.3125 2.03125 -1.21875 C 1.238281 -2.132812 0.84375 -3.445312 0.84375 -5.15625 C 0.84375 -6.226562 1.035156 -7.164062 1.421875 -7.96875 C 1.816406 -8.78125 2.378906 -9.398438 3.109375 -9.828125 C 3.847656 -10.265625 4.707031 -10.484375 5.6875 -10.484375 C 6.695312 -10.484375 7.707031 -10.242188 8.71875 -9.765625 L 8.015625 -7.984375 C 7.628906 -8.160156 7.238281 -8.316406 6.84375 -8.453125 C 6.457031 -8.585938 6.070312 -8.65625 5.6875 -8.65625 Z M 5.6875 -8.65625 "/></g></g></g><g fill="#ffffff" fill-opacity="1"><g transform="translate(284.628542, 224.01029)"><g><path d="M 10.46875 0 L 7.6875 0 L 3.1875 -7.828125 L 3.125 -7.828125 C 3.21875 -6.441406 3.265625 -5.453125 3.265625 -4.859375 L 3.265625 0 L 1.296875 0 L 1.296875 -10.34375 L 4.0625 -10.34375 L 8.5625 -2.59375 L 8.609375 -2.59375 C 8.535156 -3.9375 8.5 -4.890625 8.5 -5.453125 L 8.5 -10.34375 L 10.46875 -10.34375 Z M 10.46875 0 "/></g></g></g><g fill="#ffffff" fill-opacity="1"><g transform="translate(296.406585, 224.01029)"><g><path d="M 1.296875 0 L 1.296875 -10.34375 L 3.5 -10.34375 L 3.5 0 Z M 1.296875 0 "/></g></g></g><g fill="#ffffff" fill-opacity="1"><g transform="translate(301.202691, 224.01029)"><g><path d="M 5.6875 -8.65625 C 4.863281 -8.65625 4.222656 -8.34375 3.765625 -7.71875 C 3.316406 -7.101562 3.09375 -6.242188 3.09375 -5.140625 C 3.09375 -2.835938 3.957031 -1.6875 5.6875 -1.6875 C 6.414062 -1.6875 7.296875 -1.867188 8.328125 -2.234375 L 8.328125 -0.390625 C 7.484375 -0.0351562 6.535156 0.140625 5.484375 0.140625 C 3.984375 0.140625 2.832031 -0.3125 2.03125 -1.21875 C 1.238281 -2.132812 0.84375 -3.445312 0.84375 -5.15625 C 0.84375 -6.226562 1.035156 -7.164062 1.421875 -7.96875 C 1.816406 -8.78125 2.378906 -9.398438 3.109375 -9.828125 C 3.847656 -10.265625 4.707031 -10.484375 5.6875 -10.484375 C 6.695312 -10.484375 7.707031 -10.242188 8.71875 -9.765625 L 8.015625 -7.984375 C 7.628906 -8.160156 7.238281 -8.316406 6.84375 -8.453125 C 6.457031 -8.585938 6.070312 -8.65625 5.6875 -8.65625 Z M 5.6875 -8.65625 "/></g></g></g><g fill="#ffffff" fill-opacity="1"><g transform="translate(310.434132, 224.01029)"><g><path d="M 7.625 0 L 6.875 -2.46875 L 3.109375 -2.46875 L 2.359375 0 L 0 0 L 3.65625 -10.375 L 6.328125 -10.375 L 10 0 Z M 6.359375 -4.296875 C 5.660156 -6.523438 5.269531 -7.785156 5.1875 -8.078125 C 5.101562 -8.367188 5.039062 -8.601562 5 -8.78125 C 4.84375 -8.175781 4.394531 -6.679688 3.65625 -4.296875 Z M 6.359375 -4.296875 "/></g></g></g><g fill="#ffffff" fill-opacity="1"><g transform="translate(320.429538, 224.01029)"><g><path d="M 7.40625 -2.875 C 7.40625 -1.9375 7.066406 -1.195312 6.390625 -0.65625 C 5.722656 -0.125 4.789062 0.140625 3.59375 0.140625 C 2.488281 0.140625 1.515625 -0.0664062 0.671875 -0.484375 L 0.671875 -2.515625 C 1.367188 -2.203125 1.957031 -1.984375 2.4375 -1.859375 C 2.914062 -1.734375 3.359375 -1.671875 3.765625 -1.671875 C 4.242188 -1.671875 4.609375 -1.757812 4.859375 -1.9375 C 5.117188 -2.125 5.25 -2.398438 5.25 -2.765625 C 5.25 -2.960938 5.191406 -3.140625 5.078125 -3.296875 C 4.972656 -3.460938 4.804688 -3.617188 4.578125 -3.765625 C 4.359375 -3.910156 3.914062 -4.144531 3.25 -4.46875 C 2.613281 -4.757812 2.132812 -5.039062 1.8125 -5.3125 C 1.5 -5.59375 1.25 -5.910156 1.0625 -6.265625 C 0.875 -6.628906 0.78125 -7.054688 0.78125 -7.546875 C 0.78125 -8.460938 1.085938 -9.179688 1.703125 -9.703125 C 2.328125 -10.222656 3.1875 -10.484375 4.28125 -10.484375 C 4.820312 -10.484375 5.335938 -10.421875 5.828125 -10.296875 C 6.316406 -10.171875 6.828125 -9.992188 7.359375 -9.765625 L 6.640625 -8.0625 C 6.097656 -8.28125 5.644531 -8.429688 5.28125 -8.515625 C 4.914062 -8.609375 4.5625 -8.65625 4.21875 -8.65625 C 3.800781 -8.65625 3.476562 -8.554688 3.25 -8.359375 C 3.03125 -8.171875 2.921875 -7.921875 2.921875 -7.609375 C 2.921875 -7.421875 2.96875 -7.253906 3.0625 -7.109375 C 3.15625 -6.960938 3.296875 -6.820312 3.484375 -6.6875 C 3.679688 -6.5625 4.144531 -6.320312 4.875 -5.96875 C 5.84375 -5.507812 6.503906 -5.046875 6.859375 -4.578125 C 7.222656 -4.109375 7.40625 -3.539062 7.40625 -2.875 Z M 7.40625 -2.875 "/></g></g></g></svg>