<svg xmlns="http://www.w3.org/2000/svg" xmlns:xlink="http://www.w3.org/1999/xlink" width="500" zoomAndPan="magnify" viewBox="0 0 375 374.999991" height="500" preserveAspectRatio="xMidYMid meet" version="1.0"><defs><clipPath id="1407fef80a"><path d="M 77.492188 136.238281 L 297 136.238281 L 297 355.988281 L 77.492188 355.988281 Z M 77.492188 136.238281 " clip-rule="nonzero"/></clipPath><clipPath id="397bcb1832"><path d="M 145.3125 18.632812 L 297.5625 18.632812 L 297.5625 323.132812 L 145.3125 323.132812 Z M 145.3125 18.632812 " clip-rule="nonzero"/></clipPath></defs><path fill="#b44401" d="M 82.96875 142.398438 L 82.96875 351.195312 L 291.765625 351.195312 Z M 82.96875 142.398438 " fill-opacity="1" fill-rule="nonzero"/><g clip-path="url(#1407fef80a)"><path fill="#b44401" d="M 291.765625 355.988281 L 82.96875 355.988281 C 79.546875 355.988281 77.492188 353.933594 77.492188 351.195312 L 77.492188 142.398438 C 77.492188 140.34375 78.863281 138.289062 80.917969 137.605469 C 82.285156 136.238281 85.023438 136.921875 86.394531 138.289062 L 295.191406 347.085938 C 296.558594 348.457031 297.242188 350.511719 296.558594 352.5625 C 295.191406 354.617188 293.820312 355.988281 291.765625 355.988281 Z M 87.761719 345.71875 L 278.761719 345.71875 L 87.761719 154.71875 Z M 87.761719 345.71875 " fill-opacity="1" fill-rule="nonzero"/></g><g clip-path="url(#397bcb1832)"><path fill="#b44401" d="M 145.3125 64.027344 C 204.207031 64.027344 252.039062 111.863281 252.039062 170.753906 C 252.039062 229.648438 204.207031 277.484375 145.3125 277.484375 L 145.3125 323.003906 C 229.410156 323.003906 297.5625 254.851562 297.5625 170.753906 C 297.5625 86.65625 229.410156 18.761719 145.3125 18.761719 Z M 145.3125 64.027344 " fill-opacity="1" fill-rule="nonzero"/></g></svg>